<?xml version="1.0" encoding="UTF-8"?>
<svg id="Layer_1" data-name="Layer 1" xmlns="http://www.w3.org/2000/svg" xmlns:xlink="http://www.w3.org/1999/xlink" viewBox="0 0 90 60">
  <defs>
    <style>
      .cls-1 {
        fill: url(#linear-gradient-2);
      }

      .cls-2 {
        fill: #1a1a18;
      }

      .cls-3 {
        fill: #000003;
      }

      .cls-4 {
        clip-path: url(#clippath-1);
      }

      .cls-5 {
        fill: #e75d10;
        fill-rule: evenodd;
      }

      .cls-6 {
        clip-path: url(#clippath);
      }

      .cls-7 {
        clip-rule: evenodd;
        fill: none;
      }

      .cls-8 {
        fill: url(#linear-gradient);
      }
    </style>
    <clipPath id="clippath">
      <path class="cls-7" d="m24.52,15.34v-3.36c-.66,1.56-1.27,2.9-2.18,4.32-2.06,3.23-4.17,5.49-6.68,8.33-.76.86-1.49,1.73-2.11,2.63-1.08,1.55-1.04,2.65-.83,4.48,0,0,1.42-1.77,2.89-3.51,1.83-2.17,3.5-4.02,5.14-6.34,1.31-1.85,2.92-4.36,3.77-6.55Zm0,3.89v-3.12c-.66,1.56-1.2,2.74-2.11,4.16-1.26,1.97-2.5,3.63-3.85,5.27-.43.52-.91,1.08-1.4,1.66-.78.9-1.54,1.82-2.3,2.73-.56.66-1.58,1.69-1.89,2.44-.41.99-.32,1.82-.25,3.27,0,0,1.42-1.77,2.89-3.51,1.83-2.17,3.5-4.02,5.14-6.34,1.31-1.85,2.92-4.36,3.77-6.55Zm0,3.98v-3.12c-.66,1.56-1.2,2.74-2.11,4.16-1.26,1.97-2.5,3.63-3.85,5.27-.43.52-.91,1.08-1.4,1.66-.78.9-1.54,1.82-2.3,2.73-.56.66-1.58,1.69-1.89,2.44-.41.99-.32,1.82-.25,3.27,0,0,1.42-1.77,2.89-3.51,1.83-2.17,3.5-4.02,5.14-6.34,1.31-1.85,2.92-4.36,3.77-6.55Z"/>
    </clipPath>
    <linearGradient id="linear-gradient" x1="862.54" y1="45.98" x2="862.7" y2="45.98" gradientTransform="translate(-3459.91 149737.1) rotate(-90) scale(173.55 75.66)" gradientUnits="userSpaceOnUse">
      <stop offset="0" stop-color="#eb680b"/>
      <stop offset=".48" stop-color="#f39400"/>
      <stop offset="1" stop-color="#fbbd00"/>
    </linearGradient>
    <clipPath id="clippath-1">
      <path class="cls-7" d="m.28,23.22c.84,2.19,2.45,4.69,3.77,6.55,1.64,2.32,3.31,4.17,5.14,6.34,1.47,1.74,2.89,3.51,2.89,3.51.07-1.45.16-2.28-.25-3.27-.32-.75-1.33-1.78-1.89-2.44-.76-.91-1.52-1.83-2.3-2.73-.5-.58-.97-1.14-1.4-1.66-1.35-1.64-2.6-3.3-3.85-5.27-.91-1.42-1.45-2.6-2.11-4.16v3.12Zm0-3.98c.84,2.19,2.45,4.69,3.77,6.55,1.64,2.32,3.31,4.17,5.14,6.34,1.47,1.74,2.89,3.51,2.89,3.51.07-1.45.16-2.28-.25-3.27-.32-.75-1.33-1.78-1.89-2.44-.76-.91-1.52-1.83-2.3-2.73-.5-.58-.97-1.14-1.4-1.66-1.35-1.64-2.6-3.3-3.85-5.27-.91-1.42-1.45-2.6-2.11-4.16v3.12Zm0-3.89c.84,2.19,2.45,4.69,3.77,6.55,1.64,2.32,3.31,4.17,5.14,6.34,1.47,1.74,2.89,3.51,2.89,3.51.2-1.83.24-2.92-.83-4.48-.62-.9-1.35-1.77-2.11-2.63-2.51-2.84-4.62-5.09-6.68-8.33-.91-1.42-1.52-2.76-2.18-4.32v3.36Z"/>
    </clipPath>
    <linearGradient id="linear-gradient-2" x1="862.54" y1="46.83" x2="862.7" y2="46.83" gradientTransform="translate(-3536.19 149737.1) rotate(-90) scale(173.55 75.65)" gradientUnits="userSpaceOnUse">
      <stop offset="0" stop-color="#eb680b"/>
      <stop offset=".47" stop-color="#f39400"/>
      <stop offset="1" stop-color="#fbbd00"/>
    </linearGradient>
  </defs>
  <path class="cls-3" d="m46.23,37.38c0-.27.04-.52.12-.76.08-.24.17-.45.3-.63.13-.17.29-.33.46-.45.17-.13.35-.24.56-.29.2-.07.39-.1.6-.1.3,0,.58.05.82.14.12.04.21.07.27.07.05,0,.1-.01.13-.05.04-.03.07-.08.1-.16h.12v1.4h-.12c-.08-.3-.18-.55-.34-.76-.04-.07-.09-.12-.13-.17-.05-.04-.12-.09-.2-.14-.08-.05-.17-.09-.29-.13-.12-.03-.24-.04-.38-.04-.43,0-.76.17-1,.52-.24.35-.35.86-.35,1.55s.12,1.18.35,1.52c.24.35.56.52,1,.52.3,0,.54-.1.69-.3.17-.18.25-.43.25-.72v-.43h-.86v-.16h2.16v.16h-.67v1.52h-.13c-.03-.07-.05-.12-.09-.16-.04-.03-.08-.05-.14-.05-.08,0-.18.04-.33.09-.31.13-.6.2-.88.2s-.51-.04-.76-.14c-.24-.1-.46-.25-.64-.43-.2-.18-.35-.41-.47-.69-.1-.27-.17-.59-.17-.92m5.72,2.17v-.16h.56v-3.94h-.56v-.14h1.78c.24,0,.43.03.6.08.17.07.31.14.41.25.1.09.18.21.22.33.05.12.08.25.08.38,0,.26-.08.46-.22.62-.16.16-.35.26-.62.33v.03c.3.05.52.16.69.33.16.16.24.35.24.56v.65c0,.2.03.34.1.43.07.08.18.12.34.12.12,0,.24-.01.35-.05l.04.14c-.2.07-.41.1-.63.1-.09,0-.18-.01-.28-.04-.09-.03-.18-.07-.26-.1-.09-.05-.16-.13-.21-.24-.05-.1-.08-.22-.08-.37v-.69c0-.22-.07-.41-.18-.56-.12-.16-.3-.24-.54-.24h-.67v2.03h.58v.16h-1.75Zm1.18-2.33h.76c.1,0,.2-.03.27-.07.07-.04.12-.1.16-.18.04-.08.07-.16.08-.25.01-.09.03-.2.03-.33,0-.12-.01-.22-.04-.34-.03-.1-.07-.2-.12-.29-.07-.1-.13-.17-.24-.22-.1-.07-.21-.09-.34-.09h-.56v1.77Zm4.29.16c0-.27.04-.52.12-.76.08-.24.17-.45.3-.63.13-.17.29-.33.46-.45.17-.13.35-.24.56-.29.2-.07.39-.1.6-.1s.41.04.6.1c.21.05.39.16.56.29.17.12.33.28.46.45.13.18.24.39.3.63.08.24.12.48.12.76,0,.33-.07.64-.17.92-.12.29-.28.51-.47.69-.18.18-.41.33-.64.43-.25.1-.5.14-.76.14s-.51-.04-.76-.14c-.24-.1-.46-.25-.64-.43-.2-.18-.35-.41-.47-.69-.1-.27-.17-.59-.17-.92Zm.69,0c0,.67.12,1.18.35,1.52.24.35.56.52,1,.52s.76-.17,1-.52c.24-.34.35-.85.35-1.52s-.12-1.19-.35-1.55c-.24-.35-.56-.52-1-.52s-.76.17-1,.52c-.24.35-.35.86-.35,1.55Zm4.78-1.99v-.14h1.75v.14h-.56v3.14c0,.17.03.31.07.43.05.12.12.21.21.28.09.07.2.1.3.13.1.04.22.05.37.05.38,0,.68-.1.9-.3.22-.2.34-.48.34-.86v-2.87h-.62v-.14h1.4v.14h-.6v2.89c0,.42-.13.73-.38.96-.26.22-.6.33-1.05.33-1.03,0-1.56-.46-1.56-1.37v-2.8h-.58Zm5.91,4.1v-.16h.56v-3.94h-.56v-.14h1.87c.18,0,.37.03.55.08.2.05.35.13.47.22.38.29.58.65.58,1.07,0,.34-.13.62-.37.82-.24.2-.55.3-.92.3h-1.01v1.58h.58v.16h-1.75Zm1.18-1.9h.94c.1,0,.18-.01.26-.05.08-.03.14-.08.18-.13.05-.05.09-.13.12-.22.04-.08.05-.17.07-.27.01-.09.03-.21.03-.33,0-.1-.01-.21-.03-.3-.01-.1-.04-.21-.08-.31-.04-.09-.1-.2-.17-.27-.08-.09-.17-.16-.27-.21-.1-.07-.28-.09-.48-.09h-.56v2.2Z"/>
  <g class="cls-6">
    <rect class="cls-8" x="12.47" y="11.98" width="12.05" height="27.63"/>
  </g>
  <g class="cls-4">
    <rect class="cls-1" x=".28" y="11.98" width="12.05" height="27.63"/>
  </g>
  <path class="cls-2" d="m26.26,13.17h.27c.13,0,.21-.02.26-.06.05-.04.07-.09.07-.15,0-.04-.01-.08-.03-.11-.02-.03-.05-.06-.09-.07-.04-.02-.11-.02-.22-.02h-.25v.41Zm-.22.76v-1.35h.47c.16,0,.27.01.35.04.07.03.13.07.17.13.04.06.06.13.06.2,0,.1-.04.19-.11.26-.07.07-.16.11-.28.12.05.02.09.04.12.07.05.05.12.14.2.27l.17.26h-.27l-.12-.21c-.09-.17-.17-.27-.23-.32-.04-.03-.1-.05-.18-.05h-.13v.57h-.22Zm.55-1.75c-.18,0-.35.05-.52.14-.17.09-.3.22-.39.39-.09.17-.14.34-.14.53s.05.36.14.52c.09.17.22.3.39.39.17.09.34.14.52.14s.36-.05.52-.14c.17-.09.3-.22.39-.39.09-.17.14-.34.14-.52s-.05-.36-.14-.53c-.09-.17-.23-.3-.39-.39-.17-.09-.34-.14-.52-.14Zm0-.21c.21,0,.42.05.62.16.2.11.36.26.47.47.11.2.17.41.17.63s-.06.43-.17.63c-.11.2-.27.36-.47.47-.2.11-.41.17-.63.17s-.43-.06-.63-.17c-.2-.11-.36-.27-.47-.47-.11-.2-.17-.41-.17-.63s.06-.43.17-.63c.11-.2.27-.36.47-.47.2-.11.41-.16.62-.16Z"/>
  <path class="cls-5" d="m75.06,36.65h13.7v1.46h-13.7v-1.46Zm-57.6,0h25.98v1.46h-27.21c.22-.27.45-.54.67-.8.19-.22.37-.44.56-.66Zm-17.19,0h6.56c.19.22.37.44.56.66.22.27.45.53.67.8H.28v-1.46Z"/>
  <path class="cls-3" d="m45.2,26.79l-1.89-4.9-1.85,4.9h3.74Zm5.02,5.16h-5.18v-.63c.46-.03.83-.09,1.14-.18.3-.09.45-.2.45-.33,0-.05,0-.12-.02-.19-.01-.08-.03-.15-.05-.21l-1.03-2.83h-4.36c-.16.41-.3.77-.4,1.09-.1.31-.19.59-.28.85-.07.25-.13.46-.16.62-.03.16-.04.29-.04.39,0,.24.18.42.55.55.37.13.78.21,1.25.23v.63h-4.68v-.63c.15-.01.34-.05.57-.1.23-.05.42-.13.56-.22.23-.16.41-.33.54-.5.13-.18.25-.42.38-.73.63-1.58,1.32-3.37,2.07-5.34.75-1.98,1.42-3.74,2.02-5.28h.7l4.15,10.9c.09.23.19.42.3.56.11.14.27.28.47.42.14.09.31.16.52.21.22.06.4.09.54.09v.63Zm8.86-5.8c.26.29.46.62.58.98.13.35.19.76.19,1.23,0,1.12-.41,2.04-1.22,2.76-.81.72-1.82,1.09-3.03,1.09-.56,0-1.11-.09-1.67-.26-.55-.18-1.03-.39-1.44-.64l-.38.65h-.7l-.12-4.33h.71c.15.54.32,1.02.51,1.45.2.43.45.83.78,1.21.31.35.66.63,1.06.84.41.21.88.31,1.42.31.4,0,.76-.06,1.06-.16.3-.11.55-.26.73-.45.19-.2.33-.43.42-.69.09-.26.14-.57.14-.91,0-.5-.14-.97-.42-1.41-.28-.43-.7-.77-1.25-.99-.38-.16-.81-.33-1.31-.51-.49-.19-.92-.37-1.27-.53-.7-.32-1.25-.74-1.64-1.26-.39-.52-.58-1.2-.58-2.03,0-.48.1-.93.29-1.35.19-.41.47-.78.83-1.11.34-.31.74-.55,1.2-.73.46-.17.94-.26,1.45-.26.57,0,1.09.09,1.54.27.45.18.86.39,1.24.62l.36-.6h.7l.07,4.19h-.71c-.13-.48-.27-.94-.43-1.38-.16-.44-.37-.84-.63-1.19-.25-.34-.56-.62-.92-.82-.36-.2-.81-.31-1.33-.31-.55,0-1.03.18-1.42.54-.39.36-.59.8-.59,1.33s.12,1,.38,1.36c.25.36.62.65,1.1.88.42.21.84.39,1.26.54.41.15.81.31,1.2.48.35.16.69.33,1.01.53.33.2.61.42.85.69Zm9.48.63l-1.89-4.9-1.85,4.9h3.74Zm5.02,5.16h-5.18v-.63c.45-.03.83-.09,1.13-.18.3-.09.45-.2.45-.33,0-.05,0-.12-.02-.19-.01-.08-.03-.15-.05-.21l-1.03-2.83h-4.36c-.16.41-.3.77-.4,1.09-.1.31-.2.59-.28.85-.07.25-.13.46-.16.62-.03.16-.04.29-.04.39,0,.24.18.42.55.55.37.13.79.21,1.25.23v.63h-4.68v-.63c.15-.01.34-.05.57-.1.23-.05.42-.13.56-.22.23-.16.41-.33.54-.5.13-.18.25-.42.38-.73.63-1.58,1.32-3.37,2.07-5.34.75-1.98,1.42-3.74,2.02-5.28h.7l4.15,10.9c.09.23.19.42.3.56.11.14.27.28.47.42.13.09.31.16.52.21.22.06.4.09.55.09v.63Zm9.08-12c-.15,0-.34.04-.55.1-.22.06-.39.14-.54.23-.2.12-.36.29-.48.48-.12.2-.24.43-.36.7-.39.94-.98,2.41-1.76,4.41-.78,2-1.59,4.08-2.42,6.25h-.73c-.84-2.3-1.66-4.51-2.44-6.64-.78-2.13-1.31-3.57-1.6-4.32-.07-.18-.16-.34-.28-.48-.12-.14-.27-.27-.46-.4-.16-.1-.33-.18-.53-.23-.19-.05-.37-.08-.53-.09v-.63h5.15v.63c-.44.02-.81.07-1.11.13-.3.06-.45.18-.45.35,0,.06.01.14.04.23.02.09.04.16.06.21.22.58.57,1.53,1.05,2.85.48,1.32,1.17,3.19,2.07,5.62.45-1.1.95-2.4,1.54-3.89.58-1.5.97-2.52,1.16-3.08.19-.54.31-.91.34-1.12.03-.21.05-.38.05-.51s-.06-.25-.18-.34c-.12-.09-.28-.17-.48-.24-.19-.06-.39-.1-.59-.13-.2-.03-.4-.05-.61-.07v-.63h4.63v.63Zm6.14,12h-5.61v-.63c.16-.01.39-.03.69-.05.3-.02.51-.06.63-.11.19-.08.33-.18.42-.32.09-.13.13-.32.13-.56v-9.15c0-.21-.03-.38-.1-.52-.06-.14-.21-.26-.45-.35-.18-.07-.4-.14-.66-.2-.27-.06-.48-.1-.66-.11v-.63h5.61v.63c-.18,0-.4.03-.65.07-.25.04-.47.09-.66.15-.22.07-.37.19-.45.35-.08.16-.11.34-.11.54v9.15c0,.19.04.37.13.52.08.15.23.27.43.36.12.05.32.1.6.16.28.06.51.09.71.09v.63Zm-46.4-12c-.15,0-.34.04-.55.1-.22.06-.4.14-.54.23-.2.12-.36.29-.48.48-.12.2-.24.43-.36.7-.39.94-.98,2.41-1.76,4.41-.78,2-1.59,4.08-2.42,6.25h-.73c-.84-2.3-1.66-4.51-2.44-6.64-.78-2.13-1.31-3.57-1.6-4.32-.07-.18-.16-.34-.28-.48-.12-.14-.27-.27-.46-.4-.16-.1-.33-.18-.53-.23-.19-.05-.37-.08-.53-.09v-.63h5.15v.63c-.44.02-.81.07-1.11.13-.3.06-.45.18-.45.35,0,.06.01.14.04.23.02.09.04.16.06.21.22.58.57,1.53,1.05,2.85.48,1.32,1.17,3.19,2.07,5.62.45-1.1.95-2.4,1.54-3.89.58-1.5.97-2.52,1.16-3.08.19-.54.31-.91.34-1.12.03-.21.05-.38.05-.51s-.06-.25-.18-.34c-.12-.09-.28-.17-.48-.24-.19-.06-.39-.1-.59-.13-.2-.03-.4-.05-.6-.07v-.63h4.63v.63Z"/>
  <path class="cls-2" d="m89.38,46.26c.09,0,.17.03.24.1.07.07.1.15.1.24,0,.1-.03.18-.1.25-.07.07-.15.1-.24.1s-.18-.03-.24-.1c-.07-.07-.1-.15-.1-.25s.03-.18.1-.25c.07-.07.15-.1.25-.1m-2.5-2.55l-1.37,1.91h1.37v-1.91Zm.3-.77h.18v2.69h.65v.24h-.65v.6c0,.05.02.1.06.13.06.04.13.07.21.07h.24v.22h-1.58v-.22h.29c.1,0,.17-.02.22-.06.05-.04.07-.1.07-.18v-.55h-1.61v-.27l1.91-2.66Zm-4.17.13c-.21,0-.39.09-.52.27-.14.18-.2.44-.2.8,0,.33.07.57.2.73.14.16.31.24.53.24s.4-.09.55-.26c.15-.17.22-.41.22-.72s-.08-.58-.23-.77c-.15-.19-.34-.28-.55-.28Zm.79,1.77c-.12.19-.27.33-.43.42-.17.09-.35.14-.55.14-.28,0-.54-.1-.77-.3-.23-.2-.35-.49-.35-.88s.13-.7.39-.96c.26-.26.56-.4.92-.4.39,0,.72.16.98.49.26.33.39.78.39,1.37,0,.49-.07.9-.22,1.24-.14.34-.34.59-.58.75-.24.16-.51.25-.81.25s-.52-.06-.68-.19c-.16-.13-.25-.28-.25-.46,0-.12.03-.21.1-.28.07-.07.15-.11.25-.11.09,0,.17.03.24.09.06.06.1.14.1.22,0,.06-.03.13-.09.2-.04.05-.05.09-.05.12,0,.05.03.1.09.14.06.04.16.06.3.06.2,0,.37-.05.52-.16.15-.11.27-.29.36-.53.09-.25.14-.57.14-.96v-.25Zm-4.4-1.77c-.21,0-.39.09-.52.27-.14.18-.2.44-.2.8,0,.33.07.57.2.73.14.16.31.24.53.24s.4-.09.55-.26c.15-.17.22-.41.22-.72s-.08-.58-.23-.77c-.15-.19-.34-.28-.55-.28Zm.79,1.77c-.12.19-.27.33-.43.42-.17.09-.35.14-.55.14-.28,0-.54-.1-.77-.3-.23-.2-.35-.49-.35-.88s.13-.7.39-.96c.26-.26.56-.4.92-.4.39,0,.72.16.98.49.26.33.39.78.39,1.37,0,.49-.07.9-.22,1.24-.14.34-.34.59-.58.75-.24.16-.51.25-.81.25s-.52-.06-.68-.19c-.16-.13-.25-.28-.25-.46,0-.12.03-.21.1-.28.07-.07.15-.11.25-.11.09,0,.17.03.24.09.06.06.1.14.1.22,0,.06-.03.13-.09.2-.04.05-.05.09-.05.12,0,.05.03.1.09.14.06.04.16.06.3.06.2,0,.37-.05.52-.16.15-.11.27-.29.36-.53.09-.25.14-.57.14-.96v-.25Zm-4.08-1.9v3.55c0,.05.02.09.06.12.05.04.12.06.2.06h.55v.22h-2.05v-.22h.47c.1,0,.17-.02.22-.07.05-.05.07-.11.07-.19v-2.68c0-.06-.02-.1-.07-.14-.04-.04-.1-.06-.17-.06h-.63v-.2c.3-.04.53-.09.72-.15.18-.06.34-.15.48-.25h.13Zm-6.09,2.42h1.15c.07,0,.12-.02.16-.07.04-.05.06-.12.06-.24,0-.21-.07-.38-.19-.53-.13-.15-.28-.22-.46-.22-.2,0-.36.09-.5.26-.14.18-.21.44-.21.79Zm1.91.2h-1.91c0,.41.09.69.23.86.16.19.37.28.62.28.37,0,.67-.21.89-.64l.18.08c-.28.54-.68.81-1.2.81-.36,0-.66-.13-.9-.39-.24-.26-.37-.59-.37-.99,0-.43.12-.78.36-1.05.24-.27.53-.4.89-.4.26,0,.48.07.67.2.19.13.33.32.42.57.07.17.1.39.1.66Zm-3.41.52l.18.05c-.15.54-.47.81-.98.81-.37,0-.67-.12-.91-.37-.23-.24-.35-.57-.35-.97,0-.47.13-.83.39-1.09.26-.26.56-.39.91-.39.26,0,.48.07.65.22.17.14.26.3.26.48,0,.11-.03.19-.1.26-.06.07-.14.1-.23.1s-.16-.03-.22-.09c-.06-.06-.09-.13-.09-.21s.03-.16.1-.24c.03-.04.05-.06.05-.09,0-.05-.04-.11-.11-.16-.07-.05-.17-.08-.3-.08-.23,0-.41.08-.53.25-.17.24-.26.56-.26.96s.08.67.23.86c.15.2.35.29.58.29.32,0,.57-.21.72-.62Zm-5.96-1.88l.89-.05c.04.17.06.36.08.59.12-.19.26-.34.42-.44.16-.1.35-.15.55-.15.18,0,.32.03.44.1.12.07.21.18.29.33.07.15.11.32.11.5v1.3c0,.1.02.17.07.21.04.04.12.06.22.06h.19v.22h-1.4v-.22h.13c.12,0,.21-.02.26-.06.05-.04.07-.1.07-.18v-1.14c0-.25-.04-.43-.11-.55-.11-.17-.27-.26-.48-.26s-.39.09-.54.26c-.14.17-.21.4-.21.67v.99c0,.1.02.17.07.21.04.04.12.06.22.06h.18v.22h-1.41v-.22h.18c.09,0,.16-.02.21-.06.05-.04.07-.09.07-.14v-1.72c0-.11-.03-.2-.09-.26-.06-.06-.15-.09-.27-.09h-.14v-.19Zm-2.25,0l1.07-.03v2.29c0,.06.02.11.05.13.04.04.1.06.16.06h.3v.22h-1.52v-.22h.28c.08,0,.14-.02.18-.06.04-.04.06-.1.06-.18v-1.68c0-.11-.03-.19-.09-.24-.06-.05-.15-.08-.27-.08h-.22v-.22Zm.74-1.59c.09,0,.16.03.22.1.07.06.1.14.1.23s-.03.16-.09.22c-.06.06-.14.09-.22.09s-.16-.03-.23-.1c-.06-.06-.1-.14-.1-.22s.03-.16.1-.22c.06-.07.14-.1.22-.1Zm-2.23.37l.26-.37h.21l.02,1.53h-.19c-.12-.47-.29-.81-.52-1.03-.23-.22-.5-.32-.8-.32-.25,0-.46.07-.62.22-.16.15-.24.33-.24.55,0,.13.03.25.09.35.06.1.15.18.27.25.12.06.35.13.68.2.47.1.8.21.99.31.19.1.33.24.42.39.09.16.14.34.14.56,0,.38-.13.69-.38.94-.26.25-.58.37-.99.37-.43,0-.81-.14-1.13-.42l-.32.39h-.2v-1.63h.2c.08.45.26.81.53,1.07.28.26.59.39.94.39.28,0,.51-.08.69-.25.18-.17.27-.37.27-.6,0-.13-.03-.25-.1-.35-.07-.1-.17-.19-.32-.26-.14-.07-.43-.15-.85-.25-.46-.11-.78-.23-.95-.37-.24-.19-.35-.47-.35-.82s.12-.67.35-.91c.24-.24.54-.35.9-.35.18,0,.34.03.5.09.16.06.32.17.49.31Zm-5.48,3.26c.09,0,.17.03.24.1.07.07.1.15.1.24,0,.1-.03.18-.1.25-.07.07-.15.1-.24.1s-.18-.03-.24-.1c-.07-.07-.1-.15-.1-.25s.03-.18.1-.25c.07-.07.15-.1.25-.1Zm-2.55-3.13h.19v1.08h.86v.26h-.86v1.71c0,.15.03.26.1.34.07.08.16.12.26.12.13,0,.24-.06.33-.18.09-.12.14-.32.16-.59h.19c-.01.36-.09.62-.24.79-.15.17-.34.26-.58.26-.22,0-.39-.06-.52-.18-.12-.12-.19-.28-.19-.47v-1.79h-.47v-.2c.21-.04.38-.12.49-.26.17-.21.26-.5.27-.88Zm-3.45,2.75c.12.33.25.55.4.67.15.13.34.19.56.19.21,0,.36-.04.47-.13.11-.09.17-.2.17-.34,0-.08-.02-.15-.06-.21-.04-.06-.1-.1-.17-.13-.07-.03-.26-.07-.56-.13-.29-.06-.49-.12-.6-.18-.11-.06-.2-.15-.27-.26-.06-.11-.1-.23-.1-.36,0-.2.07-.37.2-.53.17-.2.41-.3.71-.3.23,0,.45.07.64.22l.19-.2h.12l.07.95h-.19c-.08-.27-.2-.46-.34-.58-.14-.12-.32-.18-.53-.18-.18,0-.32.04-.43.13-.1.09-.15.19-.15.32,0,.11.05.2.14.28.09.08.27.13.55.18.31.05.52.1.61.13.16.06.28.14.36.26.09.12.13.26.13.43,0,.24-.09.44-.28.6-.18.16-.42.24-.7.24-.26,0-.51-.09-.74-.26l-.21.24h-.15l-.06-1.06h.19Zm-3.34-1.71v1.77c0,.22.05.38.16.5.11.12.25.18.42.18.21,0,.39-.09.54-.26.15-.17.22-.39.22-.65v-1c0-.09-.03-.16-.1-.21-.07-.05-.19-.08-.38-.08v-.2l.94-.05v2.19c0,.1.03.18.08.23.06.05.14.08.24.08h.17v.19l-.89.02-.06-.52c-.16.19-.32.33-.48.42-.16.09-.32.14-.49.14-.24,0-.44-.08-.61-.24-.16-.16-.25-.43-.25-.81v-1.16c0-.1-.04-.18-.12-.23-.06-.04-.17-.06-.35-.06v-.2l.94-.05Zm-3.91.05l.96-.05v1.08c.1-.35.23-.62.37-.8.14-.18.32-.27.54-.27.14,0,.26.04.35.13.09.09.13.21.13.35,0,.12-.03.21-.09.28-.06.07-.13.1-.22.1s-.15-.03-.21-.09c-.05-.06-.08-.13-.08-.23,0-.06.01-.12.04-.18.03-.05.04-.08.04-.09,0-.03-.02-.04-.05-.04-.08,0-.17.05-.26.14-.14.13-.24.3-.31.52-.11.35-.17.62-.17.83v.57c0,.06.02.11.07.15.05.03.12.05.23.05h.34v.22h-1.66v-.22h.27c.09,0,.16-.02.2-.05.05-.03.07-.08.07-.13v-1.7c0-.13-.03-.22-.08-.28-.06-.06-.13-.09-.24-.09h-.23v-.2Zm-3.77-1.54h3.41l.08,1.59h-.2c-.13-.94-.47-1.4-1.01-1.4-.11,0-.19.02-.23.06-.04.04-.06.1-.06.19v3.36c0,.07.02.12.06.15.04.03.1.05.2.05h.43v.22h-1.96v-.22h.48c.07,0,.11-.02.15-.05.03-.03.05-.07.05-.13v-3.41c0-.07-.02-.13-.07-.16-.04-.04-.11-.06-.21-.06-.27,0-.5.13-.68.39-.15.21-.26.55-.32,1.01h-.22l.09-1.59Zm-3.09,1.54h.66v.25h-.66v1.94c0,.09.02.15.06.19.06.05.14.07.24.07h.36v.22h-1.63v-.22h.23c.1,0,.17-.02.21-.05.04-.03.06-.09.06-.16v-1.99h-.46v-.25h.46v-.2c0-.47.1-.82.29-1.07.19-.25.44-.37.72-.37.21,0,.38.05.5.16.12.1.18.24.18.41,0,.11-.03.2-.09.26-.06.06-.13.1-.22.1-.08,0-.15-.03-.2-.08-.05-.05-.08-.11-.08-.19,0-.09.03-.16.1-.22.06-.04.08-.08.08-.1,0-.03-.02-.06-.06-.09-.04-.03-.11-.04-.19-.04-.16,0-.3.07-.41.21-.11.14-.17.35-.17.64v.59Zm-2.93.13c-.21,0-.39.1-.52.29-.14.19-.2.5-.2.91s.07.73.2.92c.14.2.31.29.52.29s.4-.1.54-.29c.14-.19.21-.51.21-.95,0-.41-.07-.71-.2-.89-.13-.18-.32-.27-.54-.27Zm0-.2c.36,0,.66.13.9.39.24.26.37.6.37,1.02,0,.29-.05.54-.16.75-.11.21-.26.37-.47.49-.2.12-.42.18-.65.18-.35,0-.64-.13-.88-.39-.24-.26-.36-.6-.36-1.02s.12-.76.36-1.02c.24-.26.54-.39.89-.39Zm-6.44.08h1.28v.19h-.12c-.11,0-.19.01-.23.04-.04.03-.06.07-.06.13,0,.03,0,.05.01.07l.74,1.6.55-1.33c.04-.1.06-.19.06-.28,0-.07-.03-.13-.08-.16-.05-.04-.16-.06-.33-.08v-.19h1.11v.19c-.21.02-.35.12-.43.29l-.99,2.3c-.17.39-.34.66-.5.8-.17.15-.35.22-.55.22-.14,0-.26-.04-.34-.12-.09-.08-.13-.17-.13-.29,0-.09.03-.16.08-.21.05-.06.12-.08.2-.08.07,0,.13.02.18.07.05.05.07.1.07.17,0,.02,0,.05-.01.09,0,.03-.01.05-.01.06,0,.05.03.07.09.07.06,0,.13-.02.21-.07.08-.05.15-.12.22-.22.07-.1.19-.32.35-.67l-1.01-2.18c-.04-.08-.08-.13-.13-.17-.05-.04-.13-.06-.24-.08v-.19Zm-.85,1.88l.18.05c-.15.54-.47.81-.98.81-.37,0-.67-.12-.91-.37-.24-.24-.35-.57-.35-.97,0-.47.13-.83.39-1.09.26-.26.56-.39.91-.39.26,0,.48.07.65.22.17.14.26.3.26.48,0,.11-.03.19-.1.26-.06.07-.14.1-.23.1s-.16-.03-.22-.09c-.06-.06-.09-.13-.09-.21s.03-.16.1-.24c.03-.04.05-.06.05-.09,0-.05-.04-.11-.11-.16-.07-.05-.17-.08-.3-.08-.23,0-.41.08-.53.25-.17.24-.26.56-.26.96s.08.67.23.86c.15.2.35.29.58.29.32,0,.57-.21.72-.62Zm-3.77-.63c-.48.07-.82.17-1.02.32-.15.11-.22.28-.22.48,0,.15.04.26.12.34.08.08.18.12.3.12.22,0,.41-.09.58-.26.16-.17.24-.38.24-.64v-.38Zm.94,1.12l.1.16c-.14.14-.29.21-.46.21-.13,0-.24-.03-.33-.1-.09-.07-.17-.19-.23-.37-.18.19-.34.32-.47.38-.14.06-.3.1-.49.1-.27,0-.48-.06-.62-.18-.14-.12-.21-.27-.21-.45,0-.28.16-.51.49-.69.32-.18.75-.3,1.29-.37v-.4c0-.14-.06-.27-.17-.37-.12-.1-.26-.15-.44-.15-.16,0-.31.03-.43.1-.08.05-.13.1-.13.15,0,.03.02.07.07.13.06.08.08.14.08.2,0,.09-.03.16-.08.21-.05.05-.13.08-.21.08-.1,0-.17-.03-.24-.1-.06-.06-.1-.15-.1-.25,0-.19.11-.36.32-.52.21-.16.49-.23.83-.23.32,0,.56.07.73.2.17.14.25.31.25.5v1.45c0,.13.02.22.06.28.04.06.1.09.16.09.07,0,.15-.03.23-.09Zm-4.85.3c-.35,0-.6.05-.75.15-.15.1-.22.21-.22.35,0,.13.06.23.17.3.15.1.36.15.63.15.33,0,.57-.05.74-.16.16-.11.25-.23.25-.36,0-.08-.03-.15-.08-.22-.05-.07-.13-.12-.24-.15-.11-.03-.28-.05-.49-.05Zm-.16-2.56c-.17,0-.31.06-.42.19-.11.12-.17.3-.17.52,0,.24.06.42.17.56.11.13.25.2.42.2s.31-.06.42-.19c.11-.13.16-.31.16-.55,0-.22-.06-.4-.17-.53-.11-.13-.25-.19-.42-.19Zm.75.05c.19-.19.36-.29.52-.29.09,0,.17.03.23.09.06.06.09.14.09.22,0,.07-.02.13-.06.18-.04.05-.09.07-.15.07-.11,0-.18-.07-.22-.2-.02-.06-.04-.09-.08-.09-.06,0-.13.04-.21.13.08.11.14.21.17.29.03.08.05.17.05.27,0,.17-.04.31-.12.44-.08.13-.21.24-.4.34-.19.1-.36.14-.53.14h-.31c-.22,0-.37.02-.44.07-.07.05-.11.12-.11.21,0,.07.03.13.09.17.06.04.17.06.33.06l.7-.02c.36,0,.61.06.77.18.16.12.23.28.23.49,0,.23-.09.42-.27.58-.25.22-.62.33-1.11.33-.41,0-.71-.07-.91-.23-.16-.12-.23-.25-.23-.4,0-.11.05-.21.15-.31.1-.09.27-.16.5-.21-.19-.05-.33-.11-.42-.2-.09-.09-.14-.2-.14-.33,0-.12.04-.23.12-.32.08-.09.21-.17.4-.23-.16-.09-.28-.2-.36-.32-.08-.13-.12-.27-.12-.43,0-.26.1-.47.3-.65.2-.17.47-.26.79-.26.13,0,.26.02.38.06.12.04.24.1.36.17Zm-4.73.99h1.15c.07,0,.12-.02.16-.07.04-.05.06-.12.06-.24,0-.21-.07-.38-.19-.53-.13-.15-.28-.22-.46-.22-.2,0-.36.09-.5.26-.14.18-.21.44-.21.79Zm1.91.2h-1.91c0,.41.09.69.23.86.16.19.37.28.62.28.37,0,.67-.21.89-.64l.18.08c-.28.54-.68.81-1.2.81-.36,0-.66-.13-.9-.39-.24-.26-.37-.59-.37-.99,0-.43.12-.78.36-1.05.24-.27.54-.4.89-.4.26,0,.48.07.67.2.19.13.33.32.42.57.07.17.1.39.11.66Zm-6.76-2.89h1.95v.22h-.47c-.07,0-.13.02-.16.06-.03.04-.05.1-.05.18v3.31c0,.08.02.14.07.17.04.03.13.05.27.05h.59c.31,0,.57-.1.77-.31.2-.21.34-.57.44-1.09h.2l-.1,1.62h-3.5v-.22h.34c.12,0,.2-.02.25-.07.05-.04.07-.12.07-.21v-3.28c0-.07-.02-.12-.06-.16-.04-.04-.1-.05-.18-.05h-.43v-.22Zm-4.1.72l-.75,1.88h1.48l-.73-1.88Zm.08-.81h.2l1.51,3.85c.06.15.18.23.37.23h.13v.22h-1.68v-.22h.13c.17,0,.3-.02.37-.06.05-.03.07-.07.07-.12,0-.03,0-.07-.02-.1l-.35-.89h-1.66l-.2.51c-.05.14-.08.24-.08.32,0,.09.04.17.13.24.09.07.21.1.38.1h.14v.22H.28v-.22c.16,0,.29-.04.39-.11.1-.07.18-.2.26-.4l1.42-3.57Z"/>
</svg>